<svg width="38" height="50" viewBox="0 0 38 50" fill="none" xmlns="http://www.w3.org/2000/svg">
<path fill-rule="evenodd" clip-rule="evenodd" d="M16.1745 0C12.3952 0 9.33148 3.06375 9.33148 6.84307V11.8198C9.33148 12.8506 10.1671 13.6861 11.1978 13.6861H26.1281C27.1588 13.6861 27.9944 12.8506 27.9944 11.8198V6.84307C27.9944 3.06375 24.9307 0 21.1513 0H16.1745ZM13.0641 6.84307C13.0641 5.12518 14.4566 3.73258 16.1745 3.73258H21.1513C22.8693 3.73258 24.2618 5.12518 24.2618 6.84307V9.95355H13.0641V6.84307ZM5.60748 7.10392C5.6081 6.75505 5.25883 6.51499 4.94425 6.66581C1.99472 8.07981 0 11.0907 0 14.5209V40.6227C0 44.8798 3.17098 48.4701 7.39541 48.9961C14.8781 49.928 22.4477 49.928 29.9303 48.9961C34.1549 48.4701 37.3258 44.8798 37.3258 40.6227V14.5209C37.3258 11.0902 35.3391 8.07902 32.3901 6.66526C32.0761 6.51459 31.7269 6.75403 31.7269 7.1025V11.8199C31.7269 14.912 29.2201 17.4187 26.1281 17.4187H11.1977C8.10557 17.4187 5.59887 14.912 5.59887 11.8199L5.60748 7.10392ZM27.9944 26.1281C27.9944 25.0974 27.1588 24.2618 26.1281 24.2618H11.1977C10.167 24.2618 9.33145 25.0974 9.33145 26.1281C9.33145 27.1588 10.167 27.9944 11.1977 27.9944H26.1281C27.1588 27.9944 27.9944 27.1588 27.9944 26.1281ZM25.506 33.5932C25.506 32.5625 24.6704 31.7269 23.6397 31.7269H11.1977C10.167 31.7269 9.33145 32.5625 9.33145 33.5932C9.33145 34.6239 10.167 35.4595 11.1977 35.4595H23.6397C24.6704 35.4595 25.506 34.6239 25.506 33.5932Z" fill="#00A3E2"/>
</svg>
