<svg width="38" height="38" viewBox="0 0 38 38" fill="none" xmlns="http://www.w3.org/2000/svg">
<path fill-rule="evenodd" clip-rule="evenodd" d="M11.4791 8.64687V10.8961L8.79709 11.1126C6.90077 11.2657 5.3539 12.6935 5.04976 14.5715C4.98366 14.9797 4.92355 15.3886 4.86943 15.798C4.84257 16.0012 4.95093 16.1979 5.13617 16.2856L5.25817 16.3434C13.8536 20.4133 24.1463 20.4133 32.7418 16.3434L32.8638 16.2856C33.049 16.1979 33.1574 16.0012 33.1305 15.7981C33.0764 15.3886 33.0163 14.9797 32.9502 14.5715C32.646 12.6935 31.0992 11.2657 29.2029 11.1126L26.5208 10.8961V8.64687C26.5208 7.27532 25.5174 6.11015 24.161 5.90669L22.2295 5.61696C20.0885 5.29581 17.9115 5.29581 15.7705 5.61696L13.839 5.90669C12.4826 6.11015 11.4791 7.27532 11.4791 8.64687ZM21.8772 7.96569C19.9697 7.67957 18.0302 7.67957 16.1228 7.96569L14.1913 8.25542C13.9975 8.28448 13.8541 8.45093 13.8541 8.64687V10.729C17.2819 10.5326 20.7181 10.5326 24.1458 10.729V8.64687C24.1458 8.45094 24.0025 8.28448 23.8087 8.25542L21.8772 7.96569Z" fill="white"/>
<path d="M33.4373 19.1122C33.4255 18.8904 33.1932 18.7518 32.9901 18.8417C24.1695 22.7472 13.8305 22.7472 5.00984 18.8417C4.8067 18.7518 4.57445 18.8903 4.56264 19.1122C4.4015 22.1386 4.56387 25.178 5.04976 28.1784C5.3539 30.0564 6.90076 31.4842 8.79709 31.6373L11.761 31.8766C16.5791 32.2655 21.4208 32.2655 26.239 31.8766L29.2028 31.6373C31.0992 31.4842 32.646 30.0564 32.9502 28.1784C33.4361 25.178 33.5984 22.1387 33.4373 19.1122Z" fill="white"/>
</svg>
