<svg width="42" height="57" viewBox="0 0 42 57" fill="none" xmlns="http://www.w3.org/2000/svg">
<path d="M27.8842 1.87496C27.8842 1.28196 27.53 0.746286 26.9844 0.513998C26.4388 0.28171 25.8072 0.397715 25.3798 0.808723L20.12 5.8662C12.2886 13.3964 5.67134 22.0945 0.503626 31.651C0.381955 31.8658 0.3125 32.1142 0.3125 32.3787C0.3125 33.1957 0.974745 33.8579 1.79167 33.8579H14.5421V55.125C14.5421 55.7107 14.8877 56.2413 15.4235 56.478C15.9593 56.7147 16.5843 56.6129 17.0173 56.2184L19.3707 54.0747C27.6088 46.5703 34.6001 37.8026 40.0821 28.1006L41.5378 25.5243C41.7966 25.0664 41.7927 24.5055 41.5275 24.0512C41.2624 23.5968 40.776 23.3175 40.25 23.3175H27.8842V1.87496Z" fill="white"/>
</svg>
