<svg width="18" height="19" viewBox="0 0 18 19" fill="none" xmlns="http://www.w3.org/2000/svg">
<path fill-rule="evenodd" clip-rule="evenodd" d="M6.04746 0.814453H11.4052C16.2949 0.814453 17.4527 1.97222 17.4527 6.86192V12.2197C17.4527 17.1094 16.2949 18.2671 11.4052 18.2671H6.04746C1.15776 18.2671 0 17.1094 0 12.2197V6.86192C0 1.97222 1.15776 0.814453 6.04746 0.814453Z" fill="#57A7D1"/>
<path fill-rule="evenodd" clip-rule="evenodd" d="M14.2873 6.82459C14.3735 6.55362 14.2873 6.35655 13.9055 6.35655H12.6369C12.3167 6.35655 12.1689 6.52899 12.0826 6.71374C12.0826 6.71374 11.4299 8.29027 10.5184 9.31255C10.2228 9.60815 10.0874 9.70668 9.92724 9.70668C9.84102 9.70668 9.73017 9.60815 9.73017 9.33718V6.81227C9.73017 6.49204 9.63164 6.34424 9.36067 6.34424H7.36538C7.16831 6.34424 7.04515 6.49204 7.04515 6.63984C7.04515 6.94775 7.50086 7.02165 7.55013 7.88382V9.75595C7.55013 10.1624 7.47623 10.2363 7.31611 10.2363C6.88503 10.2363 5.83812 8.64745 5.20997 6.8369C5.0868 6.47972 4.96364 6.34424 4.64341 6.34424H3.36248C2.99298 6.34424 2.9314 6.51667 2.9314 6.70142C2.9314 7.03397 3.36248 8.70903 4.93901 10.926C5.98592 12.441 7.47623 13.2539 8.81874 13.2539C9.63164 13.2539 9.73017 13.0691 9.73017 12.7612V11.6158C9.73017 11.2463 9.80407 11.1847 10.0627 11.1847C10.2475 11.1847 10.58 11.2832 11.3313 12.0099C12.1935 12.8721 12.3413 13.2662 12.8216 13.2662H14.0903C14.4598 13.2662 14.6322 13.0814 14.5337 12.7243C14.4228 12.3671 14.004 11.8498 13.4621 11.2339C13.1665 10.8891 12.7231 10.5073 12.5876 10.3225C12.4029 10.0762 12.4521 9.97765 12.5876 9.75595C12.5753 9.75595 14.1272 7.56359 14.2873 6.82459Z" fill="#033F78"/>
</svg>
