<svg width="18" height="18" viewBox="0 0 18 18" fill="none" xmlns="http://www.w3.org/2000/svg">
<path fill-rule="evenodd" clip-rule="evenodd" d="M0.985718 9.54756V9.82718C2.31754 9.85141 3.65674 9.9238 4.97298 10.1455C6.45265 10.3677 7.88792 11.2858 8.46499 12.6927C9.03596 14.0404 9.08142 15.4981 9.12674 16.9513C9.13701 17.2809 9.14729 17.6103 9.16368 17.9381H9.49537C9.50098 17.7641 9.50588 17.5897 9.5108 17.4151C9.5527 15.9254 9.59512 14.4177 10.0778 13.0037C10.5661 11.5524 11.883 10.5009 13.3775 10.2048C14.8901 9.8935 16.4568 9.83907 18 9.82192V9.55119C16.3681 9.5352 14.7131 9.49184 13.1259 9.1089C11.6907 8.7683 10.4773 7.65762 10.0334 6.25076C9.59189 4.86686 9.55184 3.41903 9.512 1.97899C9.50165 1.60484 9.49131 1.23122 9.47395 0.859375H9.21597C9.18957 1.29029 9.17542 1.72509 9.16124 2.16097C9.11508 3.57941 9.06855 5.00934 8.59816 6.35443C8.12467 7.71686 6.94094 8.7683 5.53525 9.1089C4.05322 9.46648 2.51201 9.52796 0.985718 9.54756Z" fill="#57A7D1"/>
</svg>
