<svg width="21" height="16" viewBox="0 0 21 16" fill="none" xmlns="http://www.w3.org/2000/svg">
<path d="M20.1095 3.1816C19.8814 2.27206 19.1969 1.55399 18.3299 1.30267C16.7671 0.859863 10.4928 0.859863 10.4928 0.859863C10.4928 0.859863 4.21854 0.859863 2.64427 1.30267C1.77728 1.54202 1.10422 2.26009 0.864659 3.1816C0.453979 4.83315 0.453979 8.27986 0.453979 8.27986C0.453979 8.27986 0.453979 11.7266 0.876066 13.3781C1.10422 14.2877 1.78869 15.0057 2.65568 15.2571C4.21854 15.6999 10.4928 15.6999 10.4928 15.6999C10.4928 15.6999 16.7671 15.6999 18.3413 15.2571C19.2083 15.0177 19.8814 14.2996 20.1209 13.3781C20.5316 11.7266 20.5316 8.27986 20.5316 8.27986C20.5316 8.27986 20.5316 4.83315 20.1095 3.1816Z" fill="#57A7D1"/>
<path d="M8.43933 11.4151L13.6869 8.27959L8.43933 5.14404V11.4151Z" fill="#033F78"/>
</svg>
