<svg width="28" height="28" viewBox="0 0 28 28" fill="none" xmlns="http://www.w3.org/2000/svg">
<path fill-rule="evenodd" clip-rule="evenodd" d="M17.7764 19.0383C13.5801 22.3991 7.43769 22.1346 3.54778 18.2447C-0.625952 14.071 -0.625952 7.30402 3.54778 3.1303C7.72151 -1.04343 14.4885 -1.04343 18.6622 3.1303C22.5521 7.0202 22.8166 13.1626 19.4558 17.3589L27.6188 25.522C28.0826 25.9857 28.0826 26.7376 27.6188 27.2013C27.1551 27.6651 26.4032 27.6651 25.9395 27.2013L17.7764 19.0383ZM5.22716 16.5653C1.98092 13.3191 1.98092 8.05591 5.22716 4.80967C8.47339 1.56344 13.7366 1.56344 16.9828 4.80967C20.2267 8.05352 20.229 13.3114 16.99 16.5582C16.9876 16.5605 16.9852 16.5629 16.9828 16.5653C16.9804 16.5677 16.978 16.5701 16.9757 16.5725C13.7289 19.8116 8.47101 19.8092 5.22716 16.5653Z" fill="#033F78"/>
</svg>
