<svg width="29" height="29" viewBox="0 0 29 29" fill="none" xmlns="http://www.w3.org/2000/svg">
<path d="M8.80777 5.93003C12.5955 5.60078 16.4046 5.60078 20.1923 5.93003L22.0171 6.08866C23.2319 6.19427 24.2724 6.91887 24.8115 7.95535C24.8805 8.08795 24.8288 8.24849 24.7017 8.32716L17.1303 13.0142C15.5065 14.0194 13.4589 14.0405 11.8147 13.0689L4.19279 8.56506C4.06965 8.4923 4.01312 8.34251 4.06862 8.21068C4.56181 7.03912 5.67061 6.20274 6.9829 6.08866L8.80777 5.93003Z" fill="#57A7D1"/>
<path d="M4.06242 10.5933C3.87396 10.482 3.6335 10.6018 3.61153 10.8196C3.30493 13.8593 3.37914 16.9278 3.83415 19.9536C4.07402 21.5487 5.37588 22.7716 6.9829 22.9113L8.80777 23.07C12.5955 23.3992 16.4046 23.3992 20.1923 23.07L22.0171 22.9113C23.6241 22.7716 24.926 21.5487 25.1659 19.9536C25.6342 16.8396 25.6991 13.6804 25.3607 10.5539C25.337 10.3346 25.0924 10.217 24.9049 10.3331L18.0843 14.5553C15.8874 15.9153 13.1172 15.9439 10.8927 14.6294L4.06242 10.5933Z" fill="#57A7D1"/>
</svg>
