<svg width="72" height="69" viewBox="0 0 72 69" fill="none" xmlns="http://www.w3.org/2000/svg">
<path d="M9.9129 38.61H7.81641V42.7341H9.9129C12.4532 42.7341 12.4532 41.1529 12.4532 40.6334C12.4532 40.1327 12.4532 38.61 9.9129 38.61Z" fill="#00A3E2"/>
<path d="M21.4914 38.61H18.8306V46.4535H21.4914C23.6403 46.4535 25.3893 44.696 25.3893 42.5396C25.3893 40.3728 23.6403 38.61 21.4914 38.61Z" fill="#00A3E2"/>
<path d="M71.0673 10.384L61.7665 0.713309C61.3261 0.257096 60.7313 0 60.1094 0H21.7817C19.2453 0 17.1826 2.14462 17.1826 4.78175V30.4299H22.1766V5.32406H56.8565V12.4817C56.8565 14.2147 58.2072 15.6202 59.8745 15.6202H66.7588V59.3312V59.7265V63.5624H22.1766V54.6314H17.1826V64.1047C17.1826 66.7419 19.2453 68.8871 21.7817 68.8871H67.1548C69.6906 68.8871 71.7539 66.7419 71.7539 64.1047V59.7265V59.3312V12.1058C71.7539 11.4598 71.5077 10.8402 71.0673 10.384Z" fill="#033F78" fill-opacity="0.24"/>
<path d="M36.7962 33.1168H6.26863C2.82086 33.1168 0 36.0497 0 39.6344V45.4275C0 49.0122 2.82086 51.9451 6.26863 51.9451H36.7962C40.2439 51.9451 43.0648 49.0122 43.0648 45.4275V39.6344C43.0648 36.0497 40.2439 33.1168 36.7962 33.1168ZM9.91299 45.4123H7.81649V47.9463C7.81649 48.6011 7.3073 49.1317 6.67757 49.1317H6.37959C5.74986 49.1317 5.24066 48.6011 5.24066 47.9463V37.1156C5.24066 36.4626 5.74986 35.9314 6.37959 35.9314H9.91299C13.0695 35.9302 15.0309 37.7316 15.0309 40.6335C15.0309 43.5804 13.0695 45.4123 9.91299 45.4123ZM21.4916 49.1317H17.3932C16.7635 49.1317 16.2526 48.6011 16.2526 47.9463V37.1156C16.2526 36.4626 16.7629 35.9314 17.3932 35.9314H21.4916C25.0621 35.9314 27.9669 38.8947 27.9669 42.5397C27.9669 46.1748 25.0621 49.1317 21.4916 49.1317ZM37.8247 37.4242C37.8247 38.0789 37.3144 38.6101 36.6846 38.6101H32.0574V41.4487H35.9991C36.6289 41.4487 37.1398 41.9781 37.1398 42.6328V42.9432C37.1398 43.5962 36.6294 44.1274 35.9991 44.1274H32.0574V47.9475C32.0574 48.6022 31.547 49.1328 30.9173 49.1328H30.6199C29.9902 49.1328 29.4798 48.6022 29.4798 47.9475V37.1167C29.4798 36.4637 29.9902 35.9314 30.6199 35.9314H36.6846C37.3144 35.9314 37.8247 36.4637 37.8247 37.1167V37.4242Z" fill="#00A3E2"/>
</svg>
