<svg width="17" height="17" viewBox="0 0 17 17" fill="none" xmlns="http://www.w3.org/2000/svg">
<path d="M1.00017 6.8605C2.91657 11.0344 6.32657 14.3529 10.5661 16.1519L11.2457 16.4547C12.8005 17.1474 14.6283 16.6211 15.5766 15.2076L16.4647 13.8839C16.7534 13.4536 16.6655 12.8739 16.2622 12.5485L13.2503 10.1187C12.8079 9.76181 12.1574 9.84493 11.819 10.3016L10.8873 11.5589C8.49646 10.3795 6.55541 8.43846 5.37607 6.04765L6.63332 5.11593C7.08998 4.77751 7.17311 4.12699 6.81622 3.68461L4.38635 0.672667C4.061 0.269386 3.4815 0.181419 3.05113 0.469987L1.71829 1.36368C0.295947 2.31739 -0.227434 4.16024 0.481298 5.71919L0.999386 6.85881L1.00017 6.8605Z" fill="white"/>
</svg>
