<svg width="22" height="22" viewBox="0 0 22 22" fill="none" xmlns="http://www.w3.org/2000/svg">
<path d="M10.9458 21.8916C16.991 21.8916 21.8916 16.991 21.8916 10.9458C21.8916 4.9006 16.991 0 10.9458 0C4.9006 0 0 4.9006 0 10.9458C0 16.991 4.9006 21.8916 10.9458 21.8916Z" fill="#57A7D1"/>
<path fill-rule="evenodd" clip-rule="evenodd" d="M4.95463 10.8302C8.14555 9.43997 10.2733 8.52345 11.338 8.08063C14.3777 6.81629 15.0094 6.59666 15.4211 6.58941C15.5116 6.58781 15.7141 6.61025 15.8452 6.71667C15.9559 6.80652 15.9864 6.9279 16.001 7.01309C16.0156 7.09828 16.0337 7.29235 16.0193 7.44399C15.8546 9.17477 15.1418 13.3749 14.7792 15.3134C14.6258 16.1337 14.3236 16.4087 14.0311 16.4356C13.3955 16.4941 12.9128 16.0156 12.2972 15.612C11.3338 14.9805 10.7896 14.5874 9.85444 13.9712C8.77375 13.259 9.47431 12.8676 10.0902 12.2279C10.2514 12.0605 13.052 9.51308 13.1062 9.28199C13.113 9.25309 13.1193 9.14536 13.0553 9.08847C12.9913 9.03159 12.8968 9.05104 12.8287 9.06651C12.7321 9.08844 11.1931 10.1057 8.21168 12.1182C7.77484 12.4181 7.37917 12.5643 7.02466 12.5566C6.63383 12.5482 5.88205 12.3357 5.32318 12.154C4.6377 11.9312 4.09289 11.8134 4.14033 11.4349C4.16504 11.2378 4.43647 11.0363 4.95463 10.8302Z" fill="white"/>
</svg>
