<svg width="19" height="21" viewBox="0 0 19 21" fill="none" xmlns="http://www.w3.org/2000/svg">
<path d="M7.99999 1.57843C7.58578 1.57843 7.24999 1.24264 7.24999 0.82843C7.24999 0.414217 7.58578 0.0784302 7.99999 0.0784302H11.5355C11.9497 0.0784302 12.2855 0.414217 12.2855 0.82843C12.2855 1.24264 11.9497 1.57843 11.5355 1.57843H7.99999Z" fill="#A1B4CE"/>
<path d="M4.53033 2.03033C4.82322 2.32323 4.82322 2.7981 4.53033 3.09099L2.03033 5.59099C1.73744 5.88389 1.26256 5.88389 0.96967 5.59099C0.676777 5.2981 0.676777 4.82323 0.96967 4.53033L3.46967 2.03033C3.76256 1.73744 4.23744 1.73744 4.53033 2.03033Z" fill="#A1B4CE"/>
<path fill-rule="evenodd" clip-rule="evenodd" d="M10 3.06066C5.30558 3.06066 1.5 6.86624 1.5 11.5607C1.5 16.2551 5.30558 20.0607 10 20.0607C14.6944 20.0607 18.5 16.2551 18.5 11.5607C18.5 6.86624 14.6944 3.06066 10 3.06066ZM14.9909 6.77144C15.1457 6.5724 15.128 6.28922 14.9497 6.11092C14.7714 5.93261 14.4883 5.91498 14.2892 6.06979L11.1153 8.53841L9.03972 10.021C8.66294 10.2901 8.43933 10.7246 8.43933 11.1876C8.43933 11.9794 9.08123 12.6213 9.87304 12.6213C10.3361 12.6213 10.7706 12.3977 11.0397 12.0209L12.5223 9.94537L14.9909 6.77144Z" fill="#A1B4CE"/>
</svg>
