<svg width="23" height="23" viewBox="0 0 23 23" fill="none" xmlns="http://www.w3.org/2000/svg">
<path d="M19.9401 2.21749C19.3709 1.69535 17.0766 0.0367994 11.9634 0.0163234C11.9634 0.0163234 5.9346 -0.345419 2.99564 2.33694C1.35983 3.96478 0.787125 6.34682 0.725397 9.29877C0.663668 12.2507 0.584792 17.7861 5.94832 19.2876H5.95175L5.94832 21.5775C5.94832 21.5775 5.91403 22.5058 6.52788 22.6935C7.26862 22.9221 7.70415 22.2191 8.41403 21.4581C8.80155 21.0418 9.33996 20.4275 9.74463 19.9599C13.4106 20.2671 16.233 19.5641 16.5519 19.4617C17.2927 19.2228 21.4833 18.687 22.1624 13.1551C22.8688 7.45252 21.8228 3.84533 19.9401 2.21749Z" fill="#57A7D1"/>
<path d="M18.7469 3.37111C18.2668 2.9377 16.1955 1.64089 11.871 1.62382C11.871 1.62382 6.75099 1.28938 4.2647 3.52809C2.88267 4.88633 2.41628 6.91004 2.36484 9.37399C2.3134 11.8379 2.04934 16.5542 6.58296 17.8067C6.58296 17.8067 6.56581 21.3047 6.56238 21.6118C6.56238 21.8268 6.59667 21.9735 6.72013 22.0043C6.80929 22.0247 6.94304 21.9804 7.05621 21.8678C7.7798 21.1443 10.1015 18.3561 10.1015 18.3561C13.2153 18.5575 15.6948 17.9466 15.9588 17.8613C16.5864 17.6599 19.9849 17.3699 20.561 12.7457C21.1543 7.98162 20.3416 4.72935 18.7469 3.37111Z" fill="#57A7D1"/>
<path d="M14.069 9.45955C13.9147 9.45955 13.7878 9.34011 13.7809 9.18654C13.7329 8.21051 13.2699 7.72933 12.3269 7.68155C12.1691 7.67472 12.0457 7.53822 12.0525 7.37782C12.0594 7.22084 12.1966 7.09798 12.3577 7.10481C13.6026 7.16965 14.2953 7.87948 14.3605 9.15582C14.3673 9.3128 14.2439 9.44931 14.0861 9.45614C14.0758 9.45955 14.0724 9.45955 14.069 9.45955Z" fill="white"/>
<path d="M15.5503 9.95413C15.5469 9.95413 15.5469 9.95413 15.5435 9.95413C15.3823 9.95072 15.2588 9.81763 15.2622 9.66064C15.2828 8.6778 15.0016 7.88265 14.3981 7.22741C13.7979 6.57559 12.9714 6.21726 11.8809 6.13877C11.7231 6.12854 11.6031 5.98862 11.6134 5.83163C11.6237 5.67465 11.7643 5.55521 11.9221 5.56545C13.1532 5.65418 14.1306 6.08417 14.8267 6.83837C15.5229 7.59598 15.8658 8.55153 15.8418 9.67429C15.835 9.82786 15.7081 9.95413 15.5503 9.95413Z" fill="white"/>
<path d="M17.0698 10.5447C16.912 10.5447 16.7817 10.4184 16.7817 10.258C16.768 8.52097 16.2467 7.14225 15.2248 6.15258C14.2028 5.16291 12.9134 4.65442 11.3907 4.64418C11.2295 4.64418 11.1027 4.5145 11.1027 4.35411C11.1027 4.19712 11.233 4.06744 11.3907 4.06744C11.3907 4.06744 11.3907 4.06744 11.3942 4.06744C13.0711 4.07768 14.4977 4.64077 15.6294 5.73965C16.7645 6.83853 17.3441 8.35716 17.3613 10.2546C17.3613 10.415 17.2309 10.5447 17.0698 10.5447Z" fill="white"/>
<path d="M12.3991 13.0257C12.3991 13.0257 12.8072 13.0599 13.0232 12.7903L13.4484 12.2579C13.6542 11.9917 14.1515 11.8245 14.6384 12.0941C15.002 12.3023 15.3552 12.5241 15.6981 12.7664C16.0205 13.0019 16.6823 13.5513 16.6823 13.5513C16.9978 13.8175 17.0699 14.2031 16.8538 14.6126C16.8538 14.616 16.8538 14.6195 16.8538 14.6195C16.6172 15.0256 16.3188 15.3941 15.9656 15.7081C15.9622 15.7115 15.9622 15.7115 15.9587 15.7149C15.6535 15.9709 15.3517 16.1142 15.0568 16.1483C15.0122 16.1552 14.9677 16.1586 14.9265 16.1552C14.7962 16.1552 14.6659 16.1381 14.5424 16.0971L14.5321 16.0835C14.076 15.9572 13.3181 15.6364 12.0527 14.9437C11.3222 14.5478 10.6261 14.0905 9.97107 13.5752C9.64185 13.3192 9.32978 13.0428 9.03486 12.7493L9.00399 12.7186L8.97313 12.6879L8.94226 12.6572C8.93198 12.6469 8.92169 12.6367 8.9114 12.6265C8.61647 12.333 8.3387 12.019 8.08149 11.6948C7.56366 11.043 7.10412 10.3502 6.70632 9.62332C6.01016 8.36405 5.6878 7.60985 5.56091 7.15596L5.54719 7.14573C5.50604 7.02287 5.48889 6.89319 5.48889 6.76351C5.48546 6.71914 5.48889 6.67478 5.49575 6.63383C5.53348 6.34034 5.67751 6.04002 5.93128 5.73629C5.93471 5.73288 5.93471 5.73288 5.93814 5.72947C6.25364 5.37796 6.62058 5.08106 7.03211 4.84559C7.03554 4.84559 7.03897 4.84218 7.03897 4.84218C7.45049 4.63059 7.84144 4.70226 8.1055 5.01281C8.10893 5.01622 8.65763 5.67145 8.89425 5.99224C9.13774 6.33351 9.36408 6.68502 9.56984 7.04676C9.84076 7.53136 9.67272 8.02619 9.40523 8.23095L8.87025 8.65412C8.59933 8.87253 8.63362 9.27523 8.63362 9.27523C8.63362 9.27523 9.42923 12.2715 12.3991 13.0257Z" fill="white"/>
</svg>
